<svg width="34" height="45" viewBox="0 0 34 45" fill="none" xmlns="http://www.w3.org/2000/svg">
<g clip-path="url(#clip0_107_2)">
<path d="M0.151709 3.36956C0.101046 7.6456 0.106676 9.24456 0.168596 9.85393C0.247404 10.5987 0.421907 11.3435 0.708993 12.1352C1.79542 15.13 4.09774 17.3331 7.28946 18.4268C9.25403 19.0987 10.3236 19.2185 14.4722 19.2185C17.101 19.2185 17.3544 19.2237 17.7428 19.3175C18.711 19.5466 19.4428 20.0831 19.8481 20.8591C20.0395 21.2289 20.0676 21.3279 20.0845 21.755C20.1126 22.281 20.0001 22.7393 19.7186 23.255C19.5272 23.6039 18.8573 24.2081 18.4352 24.4112C17.7034 24.7654 17.8328 24.755 13.0143 24.7654C10.6219 24.7758 8.65171 24.7914 8.63482 24.8071C8.61793 24.8175 8.64608 25.0414 8.70237 25.2914C8.83184 25.9268 8.78681 26.9946 8.59542 27.8123C8.51661 28.1404 8.47158 28.4321 8.49409 28.4529C8.52224 28.4737 10.5994 28.4841 13.1212 28.4737C17.5457 28.4581 17.7203 28.4529 18.2269 28.3487C19.8256 28.0102 20.9289 27.4633 21.9815 26.4841C22.5895 25.9216 22.9216 25.505 23.2987 24.8123C24.115 23.3123 24.3007 21.7133 23.8335 20.2185C23.0792 17.8071 21.0133 16.1091 18.3057 15.6768C17.7259 15.5831 17.3881 15.5727 14.7312 15.5727C10.9822 15.5727 10.4981 15.531 8.99509 15.0727C7.83548 14.7185 6.90105 14.1873 5.99475 13.3591C5.11098 12.5571 4.61562 11.7237 4.39608 10.6768C4.27224 10.0831 4.10899 8.99976 4.14277 8.95289C4.15966 8.92685 4.48052 9.05706 4.85767 9.23935C6.69277 10.1404 8.42091 10.6091 11.0047 10.906C12.1418 11.0414 13.4928 11.0935 15.8457 11.0935C18.7054 11.0935 19.6679 11.1716 21.0808 11.5102C22.9328 11.9581 24.6328 12.7602 25.8938 13.7862C27.9428 15.4529 29.1868 17.5102 29.6991 20.0779C29.8398 20.7914 29.8679 22.5675 29.7554 23.3487C29.3275 26.1612 27.864 28.5727 25.5054 30.3383C23.811 31.6039 21.8971 32.3904 19.7017 32.7289C18.8179 32.8643 17.8779 32.9164 15.4236 32.9685C12.5921 33.0258 11.5113 33.13 9.9633 33.4893C8.11694 33.9164 6.2537 34.6873 4.53681 35.7237C4.29475 35.8696 4.08085 35.9841 4.07522 35.9737C4.06396 35.9633 4.04144 33.4164 4.02456 30.3071C4.00767 27.2029 3.96826 24.4373 3.93449 24.1664C3.71495 22.1404 3.01131 20.6352 1.59277 19.156C1.16495 18.7081 0.247404 17.9164 0.157338 17.9164C0.134821 17.9164 0.112305 23.9893 0.112305 31.4164C0.112305 42.5779 0.123563 44.906 0.185483 44.8435C0.224887 44.8018 0.399391 44.5571 0.562636 44.2966C0.939788 43.7133 1.46893 43.0258 1.98681 42.4477C2.54972 41.8227 3.92323 40.5675 4.58747 40.0779C6.68714 38.5258 9.22588 37.4112 11.6802 36.9581C12.8792 36.7393 13.9375 36.6612 16.2961 36.6143C18.6378 36.5675 19.1782 36.531 20.4785 36.3227C23.2424 35.8904 25.8487 34.8539 27.909 33.3748C28.6914 32.8123 30.0818 31.5258 30.6391 30.8435C31.1964 30.1716 31.855 29.2237 32.1702 28.6404C33.9265 25.4216 34.3656 21.7133 33.4143 18.2237C33.1328 17.1977 32.8007 16.3852 32.2603 15.3904C31.4328 13.8748 30.504 12.7029 29.2093 11.5362C26.6762 9.25497 23.7716 7.99456 20.0338 7.55706C18.8179 7.41122 18.2325 7.39039 15.1984 7.36956C11.9279 7.34872 11.2186 7.28622 9.31595 6.83831C6.97423 6.28622 5.06595 5.34351 3.28151 3.84351C2.3133 3.03622 1.26065 1.78622 0.506344 0.557056C0.371245 0.338306 0.241775 0.156013 0.224887 0.156013C0.202371 0.156013 0.168596 1.59872 0.151709 3.36956Z" fill="#030C4D"/>
</g>
<defs>
<clipPath id="clip0_107_2">
<rect width="34" height="45" fill="white"/>
</clipPath>
</defs>
</svg>
