<svg width="210" height="22" viewBox="0 0 210 22" fill="none" xmlns="http://www.w3.org/2000/svg">
<path d="M16.5003 1.83301H13.7503C12.5347 1.83301 11.369 2.31589 10.5094 3.17544C9.64988 4.03498 9.16699 5.20077 9.16699 6.41634V9.16634H6.41699V12.833H9.16699V20.1663H12.8337V12.833H15.5837L16.5003 9.16634H12.8337V6.41634C12.8337 6.17323 12.9302 5.94007 13.1021 5.76816C13.2741 5.59625 13.5072 5.49967 13.7503 5.49967H16.5003V1.83301Z" stroke="#030C4D" stroke-width="2.04167" stroke-linecap="round" stroke-linejoin="round"/>
<g clip-path="url(#clip0_132_52)">
<path d="M62.583 1.83301H53.4163C50.885 1.83301 48.833 3.88504 48.833 6.41634V15.583C48.833 18.1143 50.885 20.1663 53.4163 20.1663H62.583C65.1143 20.1663 67.1663 18.1143 67.1663 15.583V6.41634C67.1663 3.88504 65.1143 1.83301 62.583 1.83301Z" stroke="#030C4D" stroke-width="2.04167" stroke-linecap="round" stroke-linejoin="round"/>
<path d="M61.6667 10.4228C61.7798 11.1857 61.6495 11.9648 61.2943 12.6494C60.9391 13.3339 60.3771 13.8891 59.6882 14.2358C58.9993 14.5825 58.2186 14.7032 57.4572 14.5807C56.6958 14.4582 55.9923 14.0987 55.447 13.5533C54.9016 13.008 54.5421 12.3046 54.4196 11.5431C54.2971 10.7817 54.4178 10.001 54.7645 9.31212C55.1113 8.62323 55.6664 8.06121 56.351 7.706C57.0355 7.35079 57.8147 7.22048 58.5776 7.33361C59.3557 7.449 60.0762 7.81162 60.6324 8.36789C61.1887 8.92416 61.5513 9.6446 61.6667 10.4228Z" stroke="#030C4D" stroke-width="2.04167" stroke-linecap="round" stroke-linejoin="round"/>
<path d="M63.042 5.95801H63.0526" stroke="#030C4D" stroke-width="2.04167" stroke-linecap="round" stroke-linejoin="round"/>
</g>
<path d="M114.166 3.66636C114.166 3.66636 113.525 5.59136 112.333 6.78303C113.8 15.9497 103.716 22.6414 95.833 17.4164C97.8497 17.508 99.8663 16.8664 101.333 15.583C96.7497 14.208 94.458 8.79969 96.7497 4.58303C98.7663 6.96636 101.883 8.34136 105 8.24969C104.175 4.3997 108.666 2.1997 111.416 4.76636C112.425 4.76636 114.166 3.66636 114.166 3.66636Z" stroke="#030C4D" stroke-width="2.04167" stroke-linecap="round" stroke-linejoin="round"/>
<path d="M155.667 7.33301C157.126 7.33301 158.525 7.91247 159.556 8.94392C160.588 9.97537 161.167 11.3743 161.167 12.833V19.2497H157.5V12.833C157.5 12.3468 157.307 11.8805 156.963 11.5366C156.62 11.1928 156.153 10.9997 155.667 10.9997C155.181 10.9997 154.714 11.1928 154.371 11.5366C154.027 11.8805 153.834 12.3468 153.834 12.833V19.2497H150.167V12.833C150.167 11.3743 150.746 9.97537 151.778 8.94392C152.809 7.91247 154.208 7.33301 155.667 7.33301Z" stroke="#030C4D" stroke-width="2.04167" stroke-linecap="round" stroke-linejoin="round"/>
<path d="M146.5 8.25H142.833V19.25H146.5V8.25Z" stroke="#030C4D" stroke-width="2.04167" stroke-linecap="round" stroke-linejoin="round"/>
<path d="M144.666 5.49968C145.679 5.49968 146.5 4.67886 146.5 3.66634C146.5 2.65382 145.679 1.83301 144.666 1.83301C143.654 1.83301 142.833 2.65382 142.833 3.66634C142.833 4.67886 143.654 5.49968 144.666 5.49968Z" stroke="#030C4D" stroke-width="2.04167" stroke-linecap="round" stroke-linejoin="round"/>
<path d="M190.292 15.5833C189.651 12.5613 189.651 9.43867 190.292 6.41667C190.376 6.10977 190.539 5.83007 190.764 5.60506C190.989 5.38004 191.268 5.21747 191.575 5.13333C196.492 4.31884 201.509 4.31884 206.425 5.13333C206.732 5.21747 207.012 5.38004 207.237 5.60506C207.462 5.83007 207.624 6.10977 207.708 6.41667C208.349 9.43867 208.349 12.5613 207.708 15.5833C207.624 15.8902 207.462 16.1699 207.237 16.3949C207.012 16.62 206.732 16.7825 206.425 16.8667C201.509 17.6813 196.492 17.6813 191.575 16.8667C191.268 16.7825 190.989 16.62 190.764 16.3949C190.539 16.1699 190.376 15.8902 190.292 15.5833Z" stroke="#030C4D" stroke-width="2.04167" stroke-linecap="round" stroke-linejoin="round"/>
<path d="M197.167 13.75L201.75 11L197.167 8.25V13.75Z" stroke="#030C4D" stroke-width="2.04167" stroke-linecap="round" stroke-linejoin="round"/>
<defs>
<clipPath id="clip0_132_52">
<rect width="22" height="22" fill="white" transform="translate(47)"/>
</clipPath>
</defs>
</svg>
