<svg width="12" height="13" viewBox="0 0 12 13" fill="none" xmlns="http://www.w3.org/2000/svg">
<path d="M6 0.625C2.6875 0.625 0 3.25651 0 6.5C0 9.74349 2.6875 12.375 6 12.375C9.3125 12.375 12 9.74349 12 6.5C12 3.25651 9.3125 0.625 6 0.625ZM9.0875 5.08021L5.5625 8.54401C5.45 8.65417 5.2875 8.7276 5.125 8.7276C4.9625 8.7276 4.8 8.66641 4.6875 8.54401L2.9125 6.80599C2.6625 6.5612 2.6625 6.18177 2.9125 5.93698C3.1625 5.69219 3.55 5.69219 3.8 5.93698L5.125 7.23438L8.2125 4.2112C8.4625 3.96641 8.85 3.96641 9.1 4.2112C9.3375 4.45599 9.3375 4.83542 9.0875 5.08021Z" fill="#3E4581"/>
</svg>
