<svg width="12" height="13" viewBox="0 0 12 13" fill="none" xmlns="http://www.w3.org/2000/svg">
<path d="M6 0.958496C2.6875 0.958496 0 3.59001 0 6.8335C0 10.077 2.6875 12.7085 6 12.7085C9.3125 12.7085 12 10.077 12 6.8335C12 3.59001 9.3125 0.958496 6 0.958496ZM9.0875 5.4137L5.5625 8.87751C5.45 8.98766 5.2875 9.0611 5.125 9.0611C4.9625 9.0611 4.8 8.9999 4.6875 8.87751L2.9125 7.13949C2.6625 6.89469 2.6625 6.51527 2.9125 6.27048C3.1625 6.02568 3.55 6.02568 3.8 6.27048L5.125 7.56787L8.2125 4.54469C8.4625 4.2999 8.85 4.2999 9.1 4.54469C9.3375 4.78949 9.3375 5.16891 9.0875 5.4137Z" fill="#3E4581"/>
</svg>
