<svg width="12" height="13" viewBox="0 0 12 13" fill="none" xmlns="http://www.w3.org/2000/svg">
<path d="M6 0.291504C2.6875 0.291504 0 2.92301 0 6.1665C0 9.40999 2.6875 12.0415 6 12.0415C9.3125 12.0415 12 9.40999 12 6.1665C12 2.92301 9.3125 0.291504 6 0.291504ZM9.0875 4.74671L5.5625 8.21051C5.45 8.32067 5.2875 8.39411 5.125 8.39411C4.9625 8.39411 4.8 8.33291 4.6875 8.21051L2.9125 6.47249C2.6625 6.2277 2.6625 5.84828 2.9125 5.60348C3.1625 5.35869 3.55 5.35869 3.8 5.60348L5.125 6.90088L8.2125 3.8777C8.4625 3.63291 8.85 3.63291 9.1 3.8777C9.3375 4.12249 9.3375 4.50192 9.0875 4.74671Z" fill="#3E4581"/>
</svg>
